# xmcd
#
# Track frame offsets: 
#        150
#        21600
#        44953
#        63363
#        78585
#        99528
#        119181
#        140655
#        158653
#
# Disc length: 2303 seconds
#
# Revision: 0
# Processed by: cddbd v1.5.2PL0 Copyright (c) Steve Scherf et al.
# Submitted via: ExactAudioCopy v0.99pb4
#
DISCID=8908fd09
DTITLE=K.T. Oslin - This Woman
DYEAR=1988
DGENRE=Corporate Country
TTITLE0=This Woman
TTITLE1=Money
TTITLE2=Rond The Clock Lovin'
TTITLE3=Where Is a Woman to Go
TTITLE4=Hold Me
TTITLE5=Hey Bobby
TTITLE6=Jealous
TTITLE7=Didn't Expect It to Go Down This Way
TTITLE8=Truly Blue
EXTD=
EXTT0=
EXTT1=
EXTT2=
EXTT3=
EXTT4=
EXTT5=
EXTT6=
EXTT7=
EXTT8=
PLAYORDER=
